<svg width="887" height="320" viewBox="0 0 887 320" fill="none" xmlns="http://www.w3.org/2000/svg">
<path d="M385.271 128.489C379.645 128.489 374.764 127.496 370.628 125.511C366.491 123.443 363.058 120.506 360.328 116.7C357.681 112.895 355.695 108.22 354.371 102.677C353.13 97.1346 352.51 90.8057 352.51 83.691C352.51 76.6589 353.13 70.3715 354.371 64.8286C355.695 59.203 357.681 54.4874 360.328 50.6818C363.058 46.8762 366.491 43.9807 370.628 41.9952C374.764 39.9269 379.645 38.8928 385.271 38.8928C396.522 38.8928 404.795 42.8225 410.09 50.6818C415.385 58.5411 418.032 69.5442 418.032 83.691C418.032 97.8378 415.385 108.841 410.09 116.7C404.795 124.559 396.522 128.489 385.271 128.489ZM385.271 115.211C388.167 115.211 390.607 114.673 392.593 113.598C394.578 112.44 396.15 110.826 397.308 108.758C398.549 106.69 399.418 104.167 399.914 101.188C400.493 98.1273 400.783 94.7354 400.783 91.0126V76.2453C400.783 68.7996 399.625 62.9258 397.308 58.6239C395.074 54.3219 391.062 52.1709 385.271 52.1709C379.48 52.1709 375.426 54.3219 373.11 58.6239C370.876 62.9258 369.759 68.7996 369.759 76.2453V91.1366C369.759 98.5823 370.876 104.456 373.11 108.758C375.426 113.06 379.48 115.211 385.271 115.211ZM445.905 64.8286H444.664V127H430.765V40.3819H450.745L473.454 102.553H474.695V40.3819H488.593V127H468.614L445.905 64.8286Z" fill="#3350CB"/>
<path d="M375.931 155.622H374.69V217.794H360.792V131.176H380.771L403.48 193.347H404.721V131.176H418.62V217.794H398.64L375.931 155.622ZM464.114 219.283C458.488 219.283 453.607 218.29 449.471 216.305C445.334 214.236 441.901 211.299 439.171 207.494C436.524 203.688 434.538 199.014 433.214 193.471C431.973 187.928 431.353 181.599 431.353 174.485C431.353 167.453 431.973 161.165 433.214 155.622C434.538 149.997 436.524 145.281 439.171 141.476C441.901 137.67 445.334 134.774 449.471 132.789C453.607 130.721 458.488 129.687 464.114 129.687C475.365 129.687 483.638 133.616 488.933 141.476C494.228 149.335 496.875 160.338 496.875 174.485C496.875 188.632 494.228 199.635 488.933 207.494C483.638 215.353 475.365 219.283 464.114 219.283ZM464.114 206.005C467.009 206.005 469.45 205.467 471.436 204.392C473.421 203.233 474.993 201.62 476.151 199.552C477.392 197.484 478.261 194.96 478.757 191.982C479.336 188.921 479.626 185.529 479.626 181.806V167.039C479.626 159.593 478.468 153.72 476.151 149.418C473.917 145.116 469.905 142.965 464.114 142.965C458.323 142.965 454.269 145.116 451.953 149.418C449.719 153.72 448.602 159.593 448.602 167.039V181.93C448.602 189.376 449.719 195.25 451.953 199.552C454.269 203.854 458.323 206.005 464.114 206.005Z" fill="#3350CB"/>
<path d="M280.244 313.489C268.91 313.489 260.513 309.601 255.053 301.824C249.676 294.048 246.987 283.003 246.987 268.691C246.987 254.461 249.676 243.458 255.053 235.682C260.513 227.822 268.91 223.893 280.244 223.893C284.546 223.893 288.31 224.472 291.537 225.63C294.846 226.788 297.7 228.402 300.099 230.47C302.498 232.455 304.484 234.896 306.056 237.791C307.628 240.604 308.869 243.707 309.779 247.099L294.887 251.318C294.308 249.332 293.646 247.471 292.902 245.733C292.157 243.996 291.206 242.507 290.048 241.266C288.972 239.942 287.607 238.95 285.953 238.288C284.298 237.543 282.312 237.171 279.996 237.171C274.37 237.171 270.317 239.322 267.835 243.624C265.436 247.926 264.236 253.8 264.236 261.245V276.137C264.236 283.582 265.436 289.456 267.835 293.758C270.317 298.06 274.37 300.211 279.996 300.211C282.312 300.211 284.298 299.88 285.953 299.218C287.607 298.474 288.972 297.481 290.048 296.24C291.206 294.916 292.157 293.386 292.902 291.648C293.646 289.911 294.308 288.05 294.887 286.064L309.779 290.283C308.869 293.675 307.628 296.819 306.056 299.715C304.484 302.527 302.498 304.968 300.099 307.036C297.7 309.022 294.846 310.594 291.537 311.752C288.31 312.91 284.546 313.489 280.244 313.489ZM339.141 225.382V279.363C339.141 282.59 339.223 285.485 339.389 288.05C339.637 290.614 340.175 292.807 341.002 294.627C341.912 296.364 343.236 297.729 344.973 298.722C346.793 299.715 349.275 300.211 352.419 300.211C355.562 300.211 358.003 299.715 359.74 298.722C361.56 297.729 362.884 296.364 363.711 294.627C364.621 292.807 365.159 290.614 365.325 288.05C365.573 285.485 365.697 282.59 365.697 279.363V225.382H381.953V276.881C381.953 283.003 381.581 288.339 380.836 292.889C380.092 297.44 378.644 301.245 376.493 304.306C374.342 307.367 371.323 309.684 367.434 311.255C363.629 312.745 358.623 313.489 352.419 313.489C346.214 313.489 341.168 312.745 337.279 311.255C333.474 309.684 330.495 307.367 328.344 304.306C326.193 301.245 324.746 297.44 324.001 292.889C323.257 288.339 322.884 283.003 322.884 276.881V225.382H339.141ZM415.783 312H399.526V225.382H432.411C440.85 225.382 447.303 227.781 451.77 232.579C456.238 237.378 458.471 243.913 458.471 252.186C458.471 258.557 456.982 263.934 454.004 268.319C451.108 272.621 446.93 275.351 441.47 276.509L459.96 312H442.091L425.586 278.37H415.783V312ZM429.061 265.713C433.445 265.713 436.589 264.844 438.492 263.107C440.395 261.287 441.346 258.432 441.346 254.544V249.829C441.346 245.94 440.395 243.127 438.492 241.39C436.589 239.57 433.445 238.66 429.061 238.66H415.783V265.713H429.061ZM500.243 313.489C492.797 313.489 486.427 312.207 481.132 309.642C475.92 307.078 471.659 303.686 468.35 299.466L478.154 289.291C481.38 293.014 484.855 295.785 488.578 297.605C492.383 299.342 496.437 300.211 500.739 300.211C505.703 300.211 509.508 299.094 512.156 296.86C514.803 294.627 516.127 291.4 516.127 287.181C516.127 283.706 515.134 281.1 513.148 279.363C511.163 277.543 507.812 276.261 503.097 275.516L493.914 274.027C485.889 272.621 480.181 269.725 476.789 265.34C473.397 260.873 471.701 255.62 471.701 249.58C471.701 241.307 474.39 234.979 479.767 230.594C485.144 226.127 492.59 223.893 502.104 223.893C508.888 223.893 514.72 224.968 519.601 227.119C524.565 229.27 528.536 232.207 531.514 235.93L521.959 246.106C519.643 243.376 516.871 241.225 513.645 239.653C510.418 237.998 506.613 237.171 502.228 237.171C492.797 237.171 488.081 241.059 488.081 248.836C488.081 252.145 489.074 254.668 491.06 256.406C493.045 258.143 496.437 259.425 501.235 260.253L510.294 261.866C517.823 263.272 523.407 266.044 527.047 270.18C530.687 274.317 532.507 279.611 532.507 286.064C532.507 290.118 531.804 293.841 530.398 297.233C528.991 300.542 526.923 303.437 524.193 305.919C521.463 308.319 518.071 310.18 514.017 311.504C510.046 312.827 505.455 313.489 500.243 313.489ZM575.644 313.489C570.018 313.489 565.137 312.496 561.001 310.511C556.864 308.443 553.431 305.506 550.701 301.7C548.053 297.895 546.068 293.22 544.744 287.677C543.503 282.135 542.883 275.806 542.883 268.691C542.883 261.659 543.503 255.371 544.744 249.829C546.068 244.203 548.053 239.487 550.701 235.682C553.431 231.876 556.864 228.981 561.001 226.995C565.137 224.927 570.018 223.893 575.644 223.893C586.895 223.893 595.168 227.822 600.463 235.682C605.757 243.541 608.405 254.544 608.405 268.691C608.405 282.838 605.757 293.841 600.463 301.7C595.168 309.559 586.895 313.489 575.644 313.489ZM575.644 300.211C578.539 300.211 580.98 299.673 582.965 298.598C584.951 297.44 586.523 295.826 587.681 293.758C588.922 291.69 589.79 289.167 590.287 286.188C590.866 283.127 591.156 279.735 591.156 276.013V261.245C591.156 253.8 589.997 247.926 587.681 243.624C585.447 239.322 581.435 237.171 575.644 237.171C569.853 237.171 565.799 239.322 563.482 243.624C561.249 247.926 560.132 253.8 560.132 261.245V276.137C560.132 283.582 561.249 289.456 563.482 293.758C565.799 298.06 569.853 300.211 575.644 300.211Z" fill="#3350CB"/>
<path d="M550.451 208.533L517.754 124.96L597.623 165.937L565.005 175.06L563.322 175.53L562.687 177.158L550.451 208.533Z" stroke="#3350CB" stroke-width="7"/>
</svg>
