<svg width="238" height="86" viewBox="0 0 238 86" fill="none" xmlns="http://www.w3.org/2000/svg">
<path d="M103.43 34.3998C101.919 34.3998 100.609 34.1333 99.4985 33.6003C98.388 33.045 97.4663 32.2566 96.7334 31.235C96.0227 30.2133 95.4896 28.9585 95.1343 27.4704C94.8011 25.9824 94.6346 24.2834 94.6346 22.3734C94.6346 20.4855 94.8011 18.7976 95.1343 17.3096C95.4896 15.7993 96.0227 14.5334 96.7334 13.5117C97.4663 12.4901 98.388 11.7128 99.4985 11.1797C100.609 10.6245 101.919 10.3469 103.43 10.3469C106.45 10.3469 108.671 11.4018 110.092 13.5117C111.514 15.6216 112.225 18.5755 112.225 22.3734C112.225 26.1712 111.514 29.1251 110.092 31.235C108.671 33.3449 106.45 34.3998 103.43 34.3998ZM103.43 30.8352C104.207 30.8352 104.862 30.6908 105.395 30.4021C105.928 30.0912 106.35 29.6581 106.661 29.1029C106.994 28.5476 107.227 27.8702 107.361 27.0707C107.516 26.2489 107.594 25.3383 107.594 24.3389V20.3745C107.594 18.3756 107.283 16.7987 106.661 15.6439C106.061 14.489 104.984 13.9115 103.43 13.9115C101.875 13.9115 100.787 14.489 100.165 15.6439C99.5651 16.7987 99.2653 18.3756 99.2653 20.3745V24.3722C99.2653 26.3711 99.5651 27.948 100.165 29.1029C100.787 30.2577 101.875 30.8352 103.43 30.8352ZM119.707 17.3096H119.374V34.0001H115.643V10.7466H121.007L127.103 27.4371H127.436V10.7466H131.167V34.0001H125.804L119.707 17.3096Z" fill="white"/>
<path d="M100.922 41.684H100.589V58.3745H96.8578V35.1211H102.221L108.318 51.8116H108.651V35.1211H112.382V58.3745H107.019L100.922 41.684ZM124.596 58.7743C123.085 58.7743 121.775 58.5078 120.665 57.9747C119.554 57.4195 118.632 56.6311 117.899 55.6094C117.189 54.5878 116.656 53.3329 116.3 51.8449C115.967 50.3569 115.801 48.6578 115.801 46.7478C115.801 44.86 115.967 43.1721 116.3 41.684C116.656 40.1738 117.189 38.9078 117.899 37.8862C118.632 36.8645 119.554 36.0872 120.665 35.5542C121.775 34.9989 123.085 34.7213 124.596 34.7213C127.616 34.7213 129.837 35.7763 131.259 37.8862C132.68 39.9961 133.391 42.95 133.391 46.7478C133.391 50.5456 132.68 53.4995 131.259 55.6094C129.837 57.7193 127.616 58.7743 124.596 58.7743ZM124.596 55.2096C125.373 55.2096 126.028 55.0653 126.561 54.7766C127.094 54.4656 127.516 54.0325 127.827 53.4773C128.16 52.9221 128.393 52.2447 128.527 51.4451C128.682 50.6234 128.76 49.7128 128.76 48.7133V44.7489C128.76 42.7501 128.449 41.1732 127.827 40.0183C127.227 38.8634 126.15 38.286 124.596 38.286C123.041 38.286 121.953 38.8634 121.331 40.0183C120.731 41.1732 120.431 42.7501 120.431 44.7489V48.7467C120.431 50.7455 120.731 52.3224 121.331 53.4773C121.953 54.6322 123.041 55.2096 124.596 55.2096Z" fill="white"/>
<path d="M75.2341 84.0648C72.1914 84.0648 69.9371 83.021 68.4713 80.9333C67.0277 78.8456 66.3059 75.8806 66.3059 72.0383C66.3059 68.2183 67.0277 65.2644 68.4713 63.1767C69.9371 61.0668 72.1914 60.0118 75.2341 60.0118C76.389 60.0118 77.3996 60.1673 78.2657 60.4782C79.1541 60.7892 79.9203 61.2223 80.5644 61.7775C81.2085 62.3105 81.7415 62.9657 82.1635 63.7431C82.5855 64.4982 82.9186 65.331 83.1629 66.2416L79.1652 67.3743C79.0097 66.8413 78.8321 66.3416 78.6322 65.8752C78.4323 65.4088 78.1769 65.009 77.866 64.6759C77.5772 64.3205 77.2108 64.054 76.7666 63.8763C76.3224 63.6764 75.7894 63.5765 75.1675 63.5765C73.6572 63.5765 72.569 64.1539 71.9027 65.3088C71.2586 66.4637 70.9366 68.0406 70.9366 70.0395V74.0372C70.9366 76.0361 71.2586 77.6129 71.9027 78.7678C72.569 79.9227 73.6572 80.5002 75.1675 80.5002C75.7894 80.5002 76.3224 80.4113 76.7666 80.2337C77.2108 80.0338 77.5772 79.7673 77.866 79.4341C78.1769 79.0788 78.4323 78.6679 78.6322 78.2015C78.8321 77.7351 79.0097 77.2354 79.1652 76.7023L83.1629 77.835C82.9186 78.7456 82.5855 79.5896 82.1635 80.3669C81.7415 81.122 81.2085 81.7772 80.5644 82.3325C79.9203 82.8655 79.1541 83.2875 78.2657 83.5984C77.3996 83.9093 76.389 84.0648 75.2341 84.0648ZM91.0454 60.4116V74.9034C91.0454 75.7695 91.0676 76.5469 91.1121 77.2354C91.1787 77.9239 91.323 78.5124 91.5451 79.001C91.7894 79.4674 92.1448 79.8339 92.6112 80.1004C93.0998 80.3669 93.7661 80.5002 94.6101 80.5002C95.454 80.5002 96.1092 80.3669 96.5756 80.1004C97.0642 79.8339 97.4196 79.4674 97.6417 79.001C97.886 78.5124 98.0303 77.9239 98.0748 77.2354C98.1414 76.5469 98.1747 75.7695 98.1747 74.9034V60.4116H102.539V74.2371C102.539 75.8806 102.439 77.3131 102.239 78.5346C102.039 79.7562 101.65 80.7778 101.073 81.5995C100.496 82.4213 99.6849 83.0432 98.6411 83.4652C97.6195 83.8649 96.2758 84.0648 94.6101 84.0648C92.9443 84.0648 91.5896 83.8649 90.5457 83.4652C89.5241 83.0432 88.7245 82.4213 88.1471 81.5995C87.5696 80.7778 87.181 79.7562 86.9811 78.5346C86.7812 77.3131 86.6812 75.8806 86.6812 74.2371V60.4116H91.0454ZM111.621 83.665H107.257V60.4116H116.085C118.35 60.4116 120.083 61.0557 121.282 62.3439C122.481 63.632 123.081 65.3866 123.081 67.6075C123.081 69.3177 122.681 70.7613 121.882 71.9384C121.104 73.0933 119.983 73.8262 118.517 74.1371L123.481 83.665H118.683L114.253 74.6368H111.621V83.665ZM115.185 71.2388C116.362 71.2388 117.206 71.0056 117.717 70.5392C118.228 70.0506 118.483 69.2843 118.483 68.2405V66.9745C118.483 65.9307 118.228 65.1756 117.717 64.7092C117.206 64.2206 116.362 63.9763 115.185 63.9763H111.621V71.2388H115.185ZM134.295 84.0648C132.296 84.0648 130.586 83.7206 129.164 83.0321C127.765 82.3436 126.621 81.433 125.733 80.3003L128.365 77.5685C129.231 78.5679 130.164 79.312 131.163 79.8006C132.185 80.267 133.273 80.5002 134.428 80.5002C135.761 80.5002 136.782 80.2003 137.493 79.6007C138.204 79.001 138.559 78.1349 138.559 77.0022C138.559 76.0694 138.292 75.3698 137.759 74.9034C137.226 74.4148 136.327 74.0705 135.061 73.8706L132.596 73.4708C130.441 73.0933 128.909 72.3159 127.998 71.1388C127.088 69.9395 126.632 68.5292 126.632 66.9079C126.632 64.687 127.354 62.9879 128.798 61.8108C130.241 60.6115 132.24 60.0118 134.794 60.0118C136.616 60.0118 138.181 60.3006 139.492 60.878C140.824 61.4555 141.89 62.2439 142.69 63.2433L140.125 65.9751C139.503 65.2422 138.759 64.6648 137.893 64.2428C137.027 63.7986 136.005 63.5765 134.828 63.5765C132.296 63.5765 131.03 64.6203 131.03 66.708C131.03 67.5964 131.296 68.2738 131.829 68.7402C132.363 69.2066 133.273 69.5509 134.561 69.773L136.993 70.206C139.014 70.5836 140.513 71.3276 141.491 72.4381C142.468 73.5486 142.956 74.97 142.956 76.7023C142.956 77.7906 142.768 78.79 142.39 79.7006C142.013 80.589 141.457 81.3663 140.724 82.0326C139.991 82.6767 139.081 83.1764 137.993 83.5318C136.927 83.8871 135.694 84.0648 134.295 84.0648ZM154.537 84.0648C153.027 84.0648 151.716 83.7983 150.606 83.2653C149.495 82.71 148.574 81.9216 147.841 80.8999C147.13 79.8783 146.597 78.6235 146.242 77.1354C145.908 75.6474 145.742 73.9484 145.742 72.0383C145.742 70.1505 145.908 68.4626 146.242 66.9745C146.597 65.4643 147.13 64.1984 147.841 63.1767C148.574 62.1551 149.495 61.3777 150.606 60.8447C151.716 60.2895 153.027 60.0118 154.537 60.0118C157.557 60.0118 159.778 61.0668 161.2 63.1767C162.621 65.2866 163.332 68.2405 163.332 72.0383C163.332 75.8362 162.621 78.79 161.2 80.8999C159.778 83.0099 157.557 84.0648 154.537 84.0648ZM154.537 80.5002C155.314 80.5002 155.969 80.3558 156.502 80.0671C157.035 79.7562 157.457 79.3231 157.768 78.7678C158.101 78.2126 158.335 77.5352 158.468 76.7357C158.623 75.9139 158.701 75.0033 158.701 74.0039V70.0395C158.701 68.0406 158.39 66.4637 157.768 65.3088C157.169 64.1539 156.092 63.5765 154.537 63.5765C152.982 63.5765 151.894 64.1539 151.272 65.3088C150.672 66.4637 150.373 68.0406 150.373 70.0395V74.0372C150.373 76.0361 150.672 77.6129 151.272 78.7678C151.894 79.9227 152.982 80.5002 154.537 80.5002Z" fill="white"/>
<path d="M147.774 55.9825L138.996 33.5466L160.437 44.5473L151.681 46.9964L151.229 47.1228L151.059 47.5599L147.774 55.9825Z" stroke="white" stroke-width="1.87921"/>
</svg>
